<svg xmlns="http://www.w3.org/2000/svg" fill="none" viewBox="0 0 384 289" width="128" height="128">
    <path d="M199.704 33.648C199.789 34.2453 199.832 34.8 199.832 35.312C199.832 35.824 199.832 36.336 199.832 36.848V42.096L199.064 108.528V109.808C199.064 110.32 198.936 111.088 198.68 112.112C198.595 112.539 198.467 113.008 198.296 113.52C198.125 113.947 197.955 114.416 197.784 114.928C197.357 115.952 196.76 116.72 195.992 117.232C195.309 117.915 194.2 118.384 192.664 118.64C190.275 119.152 188.099 118.939 186.136 118C185.027 117.317 184.259 116.464 183.832 115.44C183.661 115.269 183.491 115.013 183.32 114.672C183.32 114.501 183.235 114.245 183.064 113.904C182.893 113.477 182.765 113.051 182.68 112.624C182.595 112.112 182.509 111.6 182.424 111.088C182.424 110.661 182.381 110.235 182.296 109.808C182.296 109.381 182.253 108.955 182.168 108.528C181.997 108.101 181.912 107.76 181.912 107.504C181.912 107.163 181.912 106.779 181.912 106.352C182.083 106.011 182.168 105.371 182.168 104.432L182.296 94.32L182.424 78.192H175.512L149.528 78.32L149.272 108.528V109.808C149.272 110.32 149.144 111.088 148.888 112.112C148.803 112.539 148.675 113.008 148.504 113.52C148.333 113.947 148.163 114.416 147.992 114.928C147.565 115.952 146.968 116.72 146.2 117.232C145.517 117.915 144.408 118.384 142.872 118.64C140.483 119.152 138.307 118.939 136.344 118C135.491 117.488 134.68 116.635 133.912 115.44C133.741 115.099 133.656 114.843 133.656 114.672L133.272 113.904C133.101 113.477 132.973 113.051 132.888 112.624C132.803 112.112 132.717 111.6 132.632 111.088C132.632 110.661 132.589 110.235 132.504 109.808C132.419 109.381 132.333 108.955 132.248 108.528C132.163 107.845 132.163 107.12 132.248 106.352V104.432L132.376 94.32L132.632 75.504C132.717 72.7733 132.76 69.9573 132.76 67.056C132.76 64.1547 132.76 61.168 132.76 58.096C132.675 55.024 132.632 52.2933 132.632 49.904C132.717 47.5147 132.845 44.8267 133.016 41.84V41.328C133.101 40.4747 133.144 39.6213 133.144 38.768C133.144 37.8293 133.187 36.8907 133.272 35.952C133.357 35.0987 133.485 34.288 133.656 33.52C133.912 32.6667 134.253 31.8133 134.68 30.96C134.936 30.2773 135.277 29.7227 135.704 29.296C136.131 28.784 136.643 28.3147 137.24 27.888C138.605 27.2053 139.971 26.864 141.336 26.864C142.019 26.864 142.616 26.9067 143.128 26.992C143.64 26.992 144.152 27.0347 144.664 27.12C145.688 27.2053 146.669 27.7173 147.608 28.656C148.291 29.2533 148.76 29.936 149.016 30.704C149.443 31.8133 149.699 32.7947 149.784 33.648C149.869 34.2453 149.912 34.8 149.912 35.312C149.912 35.824 149.912 36.336 149.912 36.848V42.096L149.656 63.216C150.339 63.216 151.107 63.216 151.96 63.216C152.899 63.216 153.965 63.1733 155.16 63.088C159.597 63.088 163.992 63.1307 168.344 63.216C172.781 63.3013 177.432 63.344 182.296 63.344H182.424C182.424 59.504 182.424 55.8347 182.424 52.336C182.509 48.8373 182.637 45.168 182.808 41.328C182.808 40.4747 182.808 39.6213 182.808 38.768C182.893 37.8293 182.979 36.8907 183.064 35.952C183.149 35.0987 183.277 34.288 183.448 33.52C183.704 32.6667 184.045 31.8133 184.472 30.96C184.643 30.2773 184.941 29.7227 185.368 29.296C185.88 28.784 186.477 28.3147 187.16 27.888C188.355 27.2053 189.677 26.864 191.128 26.864C191.811 26.864 192.408 26.9067 192.92 26.992C193.517 26.992 194.029 27.0347 194.456 27.12C195.651 27.2907 196.632 27.8027 197.4 28.656C198.083 29.0827 198.552 29.7653 198.808 30.704C198.979 31.216 199.107 31.728 199.192 32.24C199.363 32.6667 199.533 33.136 199.704 33.648ZM262.728 87.536C262.557 90.352 262.387 93.2107 262.216 96.112C262.045 98.928 261.576 101.659 260.808 104.304C260.125 106.949 259.016 109.339 257.48 111.472C256.029 113.605 253.939 115.312 251.208 116.592C248.819 117.787 246.259 118.597 243.528 119.024C240.797 119.536 238.067 119.749 235.336 119.664C232.605 119.579 229.96 119.152 227.4 118.384C224.84 117.701 222.536 116.72 220.488 115.44C218.44 114.16 216.776 112.496 215.496 110.448C214.216 108.4 213.192 106.181 212.424 103.792C211.741 101.403 211.272 98.928 211.016 96.368C210.76 93.808 210.589 91.4187 210.504 89.2C210.163 83.312 210.163 77.5093 210.504 71.792C210.504 70.6827 210.504 69.4453 210.504 68.08C210.504 66.6293 210.589 65.2213 210.76 63.856C211.016 62.4907 211.4 61.2533 211.912 60.144C212.424 58.9493 213.277 58.0533 214.472 57.456C217.032 56.0907 219.379 56.0053 221.512 57.2C223.731 58.3947 225.053 60.8693 225.48 64.624C225.736 66.5867 225.821 68.7627 225.736 71.152C225.736 73.5413 225.821 75.7173 225.992 77.68C226.077 80.5813 226.163 83.7387 226.248 87.152C226.333 90.48 226.803 93.4667 227.656 96.112C228.595 98.7573 230.088 100.763 232.136 102.128C234.269 103.408 237.427 103.451 241.608 102.256C243.571 101.659 244.851 100.165 245.448 97.776C246.131 95.3867 246.472 91.8453 246.472 87.152C246.472 85.104 246.429 82.8427 246.344 80.368C246.259 77.8933 246.216 75.4613 246.216 73.072C246.216 70.5973 246.259 68.336 246.344 66.288C246.515 64.1547 246.771 62.5333 247.112 61.424C247.539 59.888 248.435 58.736 249.8 57.968C251.165 57.2 252.616 56.816 254.152 56.816C255.688 56.7307 257.139 57.0293 258.504 57.712C259.869 58.3947 260.808 59.504 261.32 61.04C261.832 62.4053 262.173 64.1547 262.344 66.288C262.6 68.336 262.771 70.5973 262.856 73.072C262.941 75.4613 262.941 77.936 262.856 80.496C262.856 82.9707 262.813 85.3173 262.728 87.536Z"/>
    <path d="M65.792 226.168L11.008 198.264V187.256L65.792 159.352V169.336L26.752 188.792C25.0453 189.645 23.3813 190.413 21.76 191.096C20.224 191.779 19.072 192.248 18.304 192.504C19.1573 192.845 20.3947 193.357 22.016 194.04C23.6373 194.723 25.216 195.448 26.752 196.216L65.792 215.928V226.168ZM115.662 236.28C109.689 236.28 104.526 235.256 100.174 233.208C95.822 231.16 92.4513 228.259 90.062 224.504C87.6727 220.664 86.4353 216.099 86.35 210.808H96.59C96.59 215.843 98.2967 219.853 101.71 222.84C105.123 225.741 109.774 227.192 115.662 227.192C121.294 227.192 125.689 225.784 128.846 222.968C132.089 220.152 133.71 216.269 133.71 211.32C133.71 207.224 132.601 203.683 130.382 200.696C128.163 197.624 125.049 195.491 121.038 194.296L108.878 190.456C102.478 188.579 97.5287 185.379 94.03 180.856C90.6167 176.248 88.91 170.872 88.91 164.728C88.91 159.693 90.0193 155.384 92.238 151.8C94.4567 148.131 97.5713 145.272 101.582 143.224C105.678 141.176 110.457 140.152 115.918 140.152C124.025 140.152 130.51 142.413 135.374 146.936C140.238 151.459 142.67 157.517 142.67 165.112H132.558C132.558 160.248 131.065 156.408 128.078 153.592C125.091 150.776 120.995 149.368 115.79 149.368C110.585 149.368 106.489 150.648 103.502 153.208C100.601 155.683 99.15 159.224 99.15 163.832C99.15 167.843 100.259 171.341 102.478 174.328C104.697 177.315 107.811 179.448 111.822 180.728L123.982 184.568C130.297 186.531 135.203 189.859 138.702 194.552C142.201 199.245 143.95 204.749 143.95 211.064C143.95 216.099 142.755 220.536 140.366 224.376C138.062 228.131 134.777 231.075 130.51 233.208C126.329 235.256 121.379 236.28 115.662 236.28ZM191.9 236.28C186.439 236.28 181.703 235.213 177.692 233.08C173.767 230.947 170.737 227.917 168.604 223.992C166.471 219.981 165.404 215.245 165.404 209.784V166.776C165.404 161.315 166.471 156.621 168.604 152.696C170.737 148.685 173.767 145.613 177.692 143.48C181.703 141.347 186.439 140.28 191.9 140.28C197.361 140.28 202.055 141.347 205.98 143.48C209.991 145.613 213.063 148.685 215.196 152.696C217.329 156.621 218.396 161.315 218.396 166.776V209.784C218.396 215.245 217.329 219.981 215.196 223.992C213.063 227.917 209.991 230.947 205.98 233.08C202.055 235.213 197.361 236.28 191.9 236.28ZM191.9 227.192C197.191 227.192 201.244 225.699 204.06 222.712C206.876 219.64 208.284 215.331 208.284 209.784V166.776C208.284 161.229 206.833 156.963 203.932 153.976C201.116 150.904 197.105 149.368 191.9 149.368C186.695 149.368 182.641 150.904 179.74 153.976C176.924 156.963 175.516 161.229 175.516 166.776V209.784C175.516 215.331 176.924 219.64 179.74 222.712C182.641 225.699 186.695 227.192 191.9 227.192ZM269.29 236.28C263.743 236.28 258.922 235.213 254.826 233.08C250.815 230.947 247.701 227.875 245.482 223.864C243.263 219.853 242.154 215.16 242.154 209.784V166.776C242.154 161.315 243.263 156.621 245.482 152.696C247.701 148.685 250.815 145.613 254.826 143.48C258.922 141.347 263.743 140.28 269.29 140.28C274.751 140.28 279.487 141.389 283.498 143.608C287.594 145.741 290.751 148.813 292.97 152.824C295.189 156.835 296.298 161.613 296.298 167.16H286.186C286.186 161.528 284.693 157.176 281.706 154.104C278.719 150.947 274.581 149.368 269.29 149.368C263.999 149.368 259.818 150.904 256.746 153.976C253.759 156.963 252.266 161.229 252.266 166.776V209.784C252.266 215.245 253.759 219.512 256.746 222.584C259.818 225.656 263.999 227.192 269.29 227.192C274.581 227.192 278.719 225.656 281.706 222.584C284.693 219.427 286.186 215.032 286.186 209.4H296.298C296.298 214.861 295.189 219.64 292.97 223.736C290.751 227.747 287.594 230.861 283.498 233.08C279.487 235.213 274.751 236.28 269.29 236.28ZM318.008 226.168V216.184L357.048 196.728C358.755 195.875 360.376 195.107 361.912 194.424C363.533 193.741 364.728 193.272 365.496 193.016C364.643 192.675 363.405 192.163 361.784 191.48C360.163 190.797 358.584 190.072 357.048 189.304L318.008 169.592V159.352L372.792 187.256V198.264L318.008 226.168Z" />
    <style>
        path {
            fill: #000;
        }
        @media (prefers-color-scheme: dark) {
            path {
                fill: #fff;
            }
        }
    </style>
</svg>
