<svg viewBox="0 0 384 289" fill="none" xmlns="http://www.w3.org/2000/svg" aria-labelledby="logoTitle" role="img">
  <title id="logoTitle">HuSOC Human Side of Code</title>
<path d="M199.704 33.648C199.789 34.2453 199.832 34.8 199.832 35.312C199.832 35.824 199.832 36.336 199.832 36.848V42.096L199.064 108.528V109.808C199.064 110.32 198.936 111.088 198.68 112.112C198.595 112.539 198.467 113.008 198.296 113.52C198.125 113.947 197.955 114.416 197.784 114.928C197.357 115.952 196.76 116.72 195.992 117.232C195.309 117.915 194.2 118.384 192.664 118.64C190.275 119.152 188.099 118.939 186.136 118C185.027 117.317 184.259 116.464 183.832 115.44C183.661 115.269 183.491 115.013 183.32 114.672C183.32 114.501 183.235 114.245 183.064 113.904C182.893 113.477 182.765 113.051 182.68 112.624C182.595 112.112 182.509 111.6 182.424 111.088C182.424 110.661 182.381 110.235 182.296 109.808C182.296 109.381 182.253 108.955 182.168 108.528C181.997 108.101 181.912 107.76 181.912 107.504C181.912 107.163 181.912 106.779 181.912 106.352C182.083 106.011 182.168 105.371 182.168 104.432L182.296 94.32L182.424 78.192H175.512L149.528 78.32L149.272 108.528V109.808C149.272 110.32 149.144 111.088 148.888 112.112C148.803 112.539 148.675 113.008 148.504 113.52C148.333 113.947 148.163 114.416 147.992 114.928C147.565 115.952 146.968 116.72 146.2 117.232C145.517 117.915 144.408 118.384 142.872 118.64C140.483 119.152 138.307 118.939 136.344 118C135.491 117.488 134.68 116.635 133.912 115.44C133.741 115.099 133.656 114.843 133.656 114.672L133.272 113.904C133.101 113.477 132.973 113.051 132.888 112.624C132.803 112.112 132.717 111.6 132.632 111.088C132.632 110.661 132.589 110.235 132.504 109.808C132.419 109.381 132.333 108.955 132.248 108.528C132.163 107.845 132.163 107.12 132.248 106.352V104.432L132.376 94.32L132.632 75.504C132.717 72.7733 132.76 69.9573 132.76 67.056C132.76 64.1547 132.76 61.168 132.76 58.096C132.675 55.024 132.632 52.2933 132.632 49.904C132.717 47.5147 132.845 44.8267 133.016 41.84V41.328C133.101 40.4747 133.144 39.6213 133.144 38.768C133.144 37.8293 133.187 36.8907 133.272 35.952C133.357 35.0987 133.485 34.288 133.656 33.52C133.912 32.6667 134.253 31.8133 134.68 30.96C134.936 30.2773 135.277 29.7227 135.704 29.296C136.131 28.784 136.643 28.3147 137.24 27.888C138.605 27.2053 139.971 26.864 141.336 26.864C142.019 26.864 142.616 26.9067 143.128 26.992C143.64 26.992 144.152 27.0347 144.664 27.12C145.688 27.2053 146.669 27.7173 147.608 28.656C148.291 29.2533 148.76 29.936 149.016 30.704C149.443 31.8133 149.699 32.7947 149.784 33.648C149.869 34.2453 149.912 34.8 149.912 35.312C149.912 35.824 149.912 36.336 149.912 36.848V42.096L149.656 63.216C150.339 63.216 151.107 63.216 151.96 63.216C152.899 63.216 153.965 63.1733 155.16 63.088C159.597 63.088 163.992 63.1307 168.344 63.216C172.781 63.3013 177.432 63.344 182.296 63.344H182.424C182.424 59.504 182.424 55.8347 182.424 52.336C182.509 48.8373 182.637 45.168 182.808 41.328C182.808 40.4747 182.808 39.6213 182.808 38.768C182.893 37.8293 182.979 36.8907 183.064 35.952C183.149 35.0987 183.277 34.288 183.448 33.52C183.704 32.6667 184.045 31.8133 184.472 30.96C184.643 30.2773 184.941 29.7227 185.368 29.296C185.88 28.784 186.477 28.3147 187.16 27.888C188.355 27.2053 189.677 26.864 191.128 26.864C191.811 26.864 192.408 26.9067 192.92 26.992C193.517 26.992 194.029 27.0347 194.456 27.12C195.651 27.2907 196.632 27.8027 197.4 28.656C198.083 29.0827 198.552 29.7653 198.808 30.704C198.979 31.216 199.107 31.728 199.192 32.24C199.363 32.6667 199.533 33.136 199.704 33.648ZM262.728 87.536C262.557 90.352 262.387 93.2107 262.216 96.112C262.045 98.928 261.576 101.659 260.808 104.304C260.125 106.949 259.016 109.339 257.48 111.472C256.029 113.605 253.939 115.312 251.208 116.592C248.819 117.787 246.259 118.597 243.528 119.024C240.797 119.536 238.067 119.749 235.336 119.664C232.605 119.579 229.96 119.152 227.4 118.384C224.84 117.701 222.536 116.72 220.488 115.44C218.44 114.16 216.776 112.496 215.496 110.448C214.216 108.4 213.192 106.181 212.424 103.792C211.741 101.403 211.272 98.928 211.016 96.368C210.76 93.808 210.589 91.4187 210.504 89.2C210.163 83.312 210.163 77.5093 210.504 71.792C210.504 70.6827 210.504 69.4453 210.504 68.08C210.504 66.6293 210.589 65.2213 210.76 63.856C211.016 62.4907 211.4 61.2533 211.912 60.144C212.424 58.9493 213.277 58.0533 214.472 57.456C217.032 56.0907 219.379 56.0053 221.512 57.2C223.731 58.3947 225.053 60.8693 225.48 64.624C225.736 66.5867 225.821 68.7627 225.736 71.152C225.736 73.5413 225.821 75.7173 225.992 77.68C226.077 80.5813 226.163 83.7387 226.248 87.152C226.333 90.48 226.803 93.4667 227.656 96.112C228.595 98.7573 230.088 100.763 232.136 102.128C234.269 103.408 237.427 103.451 241.608 102.256C243.571 101.659 244.851 100.165 245.448 97.776C246.131 95.3867 246.472 91.8453 246.472 87.152C246.472 85.104 246.429 82.8427 246.344 80.368C246.259 77.8933 246.216 75.4613 246.216 73.072C246.216 70.5973 246.259 68.336 246.344 66.288C246.515 64.1547 246.771 62.5333 247.112 61.424C247.539 59.888 248.435 58.736 249.8 57.968C251.165 57.2 252.616 56.816 254.152 56.816C255.688 56.7307 257.139 57.0293 258.504 57.712C259.869 58.3947 260.808 59.504 261.32 61.04C261.832 62.4053 262.173 64.1547 262.344 66.288C262.6 68.336 262.771 70.5973 262.856 73.072C262.941 75.4613 262.941 77.936 262.856 80.496C262.856 82.9707 262.813 85.3173 262.728 87.536Z" fill="black"/>
<path d="M65.792 226.168L11.008 198.264V187.256L65.792 159.352V169.336L26.752 188.792C25.0453 189.645 23.3813 190.413 21.76 191.096C20.224 191.779 19.072 192.248 18.304 192.504C19.1573 192.845 20.3947 193.357 22.016 194.04C23.6373 194.723 25.216 195.448 26.752 196.216L65.792 215.928V226.168ZM115.662 236.28C109.689 236.28 104.526 235.256 100.174 233.208C95.822 231.16 92.4513 228.259 90.062 224.504C87.6727 220.664 86.4353 216.099 86.35 210.808H96.59C96.59 215.843 98.2967 219.853 101.71 222.84C105.123 225.741 109.774 227.192 115.662 227.192C121.294 227.192 125.689 225.784 128.846 222.968C132.089 220.152 133.71 216.269 133.71 211.32C133.71 207.224 132.601 203.683 130.382 200.696C128.163 197.624 125.049 195.491 121.038 194.296L108.878 190.456C102.478 188.579 97.5287 185.379 94.03 180.856C90.6167 176.248 88.91 170.872 88.91 164.728C88.91 159.693 90.0193 155.384 92.238 151.8C94.4567 148.131 97.5713 145.272 101.582 143.224C105.678 141.176 110.457 140.152 115.918 140.152C124.025 140.152 130.51 142.413 135.374 146.936C140.238 151.459 142.67 157.517 142.67 165.112H132.558C132.558 160.248 131.065 156.408 128.078 153.592C125.091 150.776 120.995 149.368 115.79 149.368C110.585 149.368 106.489 150.648 103.502 153.208C100.601 155.683 99.15 159.224 99.15 163.832C99.15 167.843 100.259 171.341 102.478 174.328C104.697 177.315 107.811 179.448 111.822 180.728L123.982 184.568C130.297 186.531 135.203 189.859 138.702 194.552C142.201 199.245 143.95 204.749 143.95 211.064C143.95 216.099 142.755 220.536 140.366 224.376C138.062 228.131 134.777 231.075 130.51 233.208C126.329 235.256 121.379 236.28 115.662 236.28ZM191.9 236.28C186.439 236.28 181.703 235.213 177.692 233.08C173.767 230.947 170.737 227.917 168.604 223.992C166.471 219.981 165.404 215.245 165.404 209.784V166.776C165.404 161.315 166.471 156.621 168.604 152.696C170.737 148.685 173.767 145.613 177.692 143.48C181.703 141.347 186.439 140.28 191.9 140.28C197.361 140.28 202.055 141.347 205.98 143.48C209.991 145.613 213.063 148.685 215.196 152.696C217.329 156.621 218.396 161.315 218.396 166.776V209.784C218.396 215.245 217.329 219.981 215.196 223.992C213.063 227.917 209.991 230.947 205.98 233.08C202.055 235.213 197.361 236.28 191.9 236.28ZM191.9 227.192C197.191 227.192 201.244 225.699 204.06 222.712C206.876 219.64 208.284 215.331 208.284 209.784V166.776C208.284 161.229 206.833 156.963 203.932 153.976C201.116 150.904 197.105 149.368 191.9 149.368C186.695 149.368 182.641 150.904 179.74 153.976C176.924 156.963 175.516 161.229 175.516 166.776V209.784C175.516 215.331 176.924 219.64 179.74 222.712C182.641 225.699 186.695 227.192 191.9 227.192ZM269.29 236.28C263.743 236.28 258.922 235.213 254.826 233.08C250.815 230.947 247.701 227.875 245.482 223.864C243.263 219.853 242.154 215.16 242.154 209.784V166.776C242.154 161.315 243.263 156.621 245.482 152.696C247.701 148.685 250.815 145.613 254.826 143.48C258.922 141.347 263.743 140.28 269.29 140.28C274.751 140.28 279.487 141.389 283.498 143.608C287.594 145.741 290.751 148.813 292.97 152.824C295.189 156.835 296.298 161.613 296.298 167.16H286.186C286.186 161.528 284.693 157.176 281.706 154.104C278.719 150.947 274.581 149.368 269.29 149.368C263.999 149.368 259.818 150.904 256.746 153.976C253.759 156.963 252.266 161.229 252.266 166.776V209.784C252.266 215.245 253.759 219.512 256.746 222.584C259.818 225.656 263.999 227.192 269.29 227.192C274.581 227.192 278.719 225.656 281.706 222.584C284.693 219.427 286.186 215.032 286.186 209.4H296.298C296.298 214.861 295.189 219.64 292.97 223.736C290.751 227.747 287.594 230.861 283.498 233.08C279.487 235.213 274.751 236.28 269.29 236.28ZM318.008 226.168V216.184L357.048 196.728C358.755 195.875 360.376 195.107 361.912 194.424C363.533 193.741 364.728 193.272 365.496 193.016C364.643 192.675 363.405 192.163 361.784 191.48C360.163 190.797 358.584 190.072 357.048 189.304L318.008 169.592V159.352L372.792 187.256V198.264L318.008 226.168Z" fill="#44BF19"/>
<path d="M62.8364 282V264.48H64.7324V272.064H70.6364V264.48H72.5324V282H70.6364V273.816H64.7324V282H62.8364ZM82.051 282.24C80.563 282.24 79.371 281.792 78.475 280.896C77.595 280 77.155 278.784 77.155 277.248V268.8H79.051V277.248C79.051 278.288 79.315 279.104 79.843 279.696C80.387 280.272 81.123 280.56 82.051 280.56C82.995 280.56 83.739 280.272 84.283 279.696C84.827 279.104 85.099 278.288 85.099 277.248V268.8H86.995V277.248C86.995 278.784 86.547 280 85.651 280.896C84.755 281.792 83.555 282.24 82.051 282.24ZM90.9216 282V268.8H92.6016V270.432H92.9616L92.6976 270.96C92.6976 270.224 92.8896 269.64 93.2736 269.208C93.6736 268.776 94.2176 268.56 94.9056 268.56C95.6256 268.56 96.1856 268.816 96.5856 269.328C97.0016 269.84 97.2176 270.56 97.2336 271.488L96.7296 270.432H97.5216L97.1856 270.96C97.1856 270.224 97.3856 269.64 97.7856 269.208C98.1856 268.776 98.7296 268.56 99.4176 268.56C100.234 268.56 100.866 268.864 101.314 269.472C101.778 270.08 102.01 270.888 102.01 271.896V282H100.234V271.896C100.234 271.32 100.106 270.872 99.8496 270.552C99.5936 270.216 99.2336 270.048 98.7696 270.048C98.3056 270.048 97.9376 270.216 97.6656 270.552C97.3936 270.872 97.2576 271.32 97.2576 271.896V282H95.6736V271.896C95.6736 271.304 95.5376 270.848 95.2656 270.528C95.0096 270.208 94.6496 270.048 94.1856 270.048C93.7216 270.048 93.3616 270.208 93.1056 270.528C92.8496 270.848 92.7136 271.304 92.6976 271.896V282H90.9216ZM109.824 282.24C108.432 282.24 107.336 281.888 106.536 281.184C105.736 280.464 105.336 279.496 105.336 278.28C105.336 277.08 105.728 276.136 106.512 275.448C107.296 274.744 108.352 274.392 109.68 274.392H113.88V273C113.88 272.12 113.624 271.44 113.112 270.96C112.6 270.48 111.872 270.24 110.928 270.24C110.096 270.24 109.4 270.424 108.84 270.792C108.296 271.16 107.984 271.656 107.904 272.28H105.984C106.144 271.144 106.672 270.24 107.568 269.568C108.48 268.896 109.616 268.56 110.976 268.56C112.448 268.56 113.616 268.96 114.48 269.76C115.344 270.544 115.776 271.608 115.776 272.952V282H113.904V279.432H113.592L113.952 279.048C113.952 280.024 113.576 280.8 112.824 281.376C112.072 281.952 111.072 282.24 109.824 282.24ZM110.28 280.704C111.336 280.704 112.2 280.44 112.872 279.912C113.544 279.384 113.88 278.696 113.88 277.848V275.856H109.704C108.952 275.856 108.352 276.064 107.904 276.48C107.456 276.896 107.232 277.464 107.232 278.184C107.232 278.952 107.504 279.568 108.048 280.032C108.592 280.48 109.336 280.704 110.28 280.704ZM120.375 282V268.8H122.271V271.248H122.751L122.223 271.944C122.223 270.888 122.543 270.064 123.183 269.472C123.839 268.864 124.727 268.56 125.847 268.56C127.159 268.56 128.207 268.976 128.991 269.808C129.775 270.624 130.167 271.736 130.167 273.144V282H128.271V273.36C128.271 272.352 128.007 271.576 127.479 271.032C126.951 270.488 126.231 270.216 125.319 270.216C124.375 270.216 123.631 270.504 123.087 271.08C122.543 271.656 122.271 272.472 122.271 273.528V282H120.375ZM154.124 282.24C153.004 282.24 152.036 282.048 151.22 281.664C150.404 281.28 149.772 280.736 149.324 280.032C148.876 279.312 148.644 278.456 148.628 277.464H150.548C150.548 278.408 150.868 279.16 151.508 279.72C152.148 280.264 153.02 280.536 154.124 280.536C155.18 280.536 156.004 280.272 156.596 279.744C157.204 279.216 157.508 278.488 157.508 277.56C157.508 276.792 157.3 276.128 156.884 275.568C156.468 274.992 155.884 274.592 155.132 274.368L152.852 273.648C151.652 273.296 150.724 272.696 150.068 271.848C149.428 270.984 149.108 269.976 149.108 268.824C149.108 267.88 149.316 267.072 149.732 266.4C150.148 265.712 150.732 265.176 151.484 264.792C152.252 264.408 153.148 264.216 154.172 264.216C155.692 264.216 156.908 264.64 157.82 265.488C158.732 266.336 159.188 267.472 159.188 268.896H157.292C157.292 267.984 157.012 267.264 156.452 266.736C155.892 266.208 155.124 265.944 154.148 265.944C153.172 265.944 152.404 266.184 151.844 266.664C151.3 267.128 151.028 267.792 151.028 268.656C151.028 269.408 151.236 270.064 151.652 270.624C152.068 271.184 152.652 271.584 153.404 271.824L155.684 272.544C156.868 272.912 157.788 273.536 158.444 274.416C159.1 275.296 159.428 276.328 159.428 277.512C159.428 278.456 159.204 279.288 158.756 280.008C158.324 280.712 157.708 281.264 156.908 281.664C156.124 282.048 155.196 282.24 154.124 282.24ZM163.331 282V280.272H168.035V270.528H163.931V268.8H169.955V280.272H174.419V282H163.331ZM168.779 266.376C168.283 266.376 167.883 266.248 167.579 265.992C167.291 265.736 167.147 265.384 167.147 264.936C167.147 264.472 167.291 264.104 167.579 263.832C167.883 263.56 168.283 263.424 168.779 263.424C169.275 263.424 169.667 263.56 169.955 263.832C170.259 264.104 170.411 264.472 170.411 264.936C170.411 265.368 170.259 265.72 169.955 265.992C169.667 266.248 169.275 266.376 168.779 266.376ZM182.161 282.24C180.849 282.24 179.785 281.8 178.969 280.92C178.169 280.04 177.769 278.856 177.769 277.368V273.456C177.769 271.952 178.169 270.76 178.969 269.88C179.769 269 180.833 268.56 182.161 268.56C183.265 268.56 184.153 268.864 184.825 269.472C185.513 270.08 185.857 270.896 185.857 271.92L185.353 271.128H185.809L185.785 268.248V264.48H187.681V282H185.785V279.672H185.281L185.857 278.88C185.857 279.92 185.513 280.744 184.825 281.352C184.153 281.944 183.265 282.24 182.161 282.24ZM182.761 280.584C183.705 280.584 184.441 280.296 184.969 279.72C185.513 279.128 185.785 278.312 185.785 277.272V273.528C185.785 272.488 185.513 271.68 184.969 271.104C184.441 270.512 183.705 270.216 182.761 270.216C181.801 270.216 181.049 270.504 180.505 271.08C179.961 271.656 179.689 272.472 179.689 273.528V277.272C179.689 278.328 179.961 279.144 180.505 279.72C181.049 280.296 181.801 280.584 182.761 280.584ZM197.2 282.24C196.176 282.24 195.288 282.04 194.536 281.64C193.784 281.224 193.2 280.64 192.784 279.888C192.368 279.136 192.16 278.264 192.16 277.272V273.528C192.16 272.52 192.368 271.648 192.784 270.912C193.2 270.16 193.784 269.584 194.536 269.184C195.288 268.768 196.176 268.56 197.2 268.56C198.224 268.56 199.112 268.768 199.864 269.184C200.616 269.584 201.2 270.16 201.616 270.912C202.032 271.648 202.24 272.52 202.24 273.528V275.856H194.032V277.272C194.032 278.344 194.304 279.176 194.848 279.768C195.408 280.344 196.192 280.632 197.2 280.632C198.048 280.632 198.736 280.464 199.264 280.128C199.808 279.792 200.152 279.304 200.296 278.664H202.192C202.016 279.768 201.48 280.64 200.584 281.28C199.688 281.92 198.56 282.24 197.2 282.24ZM200.368 274.584V273.528C200.368 272.456 200.096 271.632 199.552 271.056C199.008 270.464 198.224 270.168 197.2 270.168C196.192 270.168 195.408 270.464 194.848 271.056C194.304 271.632 194.032 272.456 194.032 273.528V274.368H200.56L200.368 274.584ZM225.981 282.216C224.957 282.216 224.069 282.016 223.317 281.616C222.565 281.216 221.981 280.64 221.565 279.888C221.149 279.136 220.941 278.248 220.941 277.224V273.576C220.941 272.536 221.149 271.648 221.565 270.912C221.981 270.16 222.565 269.584 223.317 269.184C224.069 268.784 224.957 268.584 225.981 268.584C227.005 268.584 227.893 268.784 228.645 269.184C229.397 269.584 229.981 270.16 230.397 270.912C230.813 271.648 231.021 272.528 231.021 273.552V277.224C231.021 278.248 230.813 279.136 230.397 279.888C229.981 280.64 229.397 281.216 228.645 281.616C227.893 282.016 227.005 282.216 225.981 282.216ZM225.981 280.512C226.973 280.512 227.741 280.232 228.285 279.672C228.829 279.112 229.101 278.296 229.101 277.224V273.576C229.101 272.504 228.821 271.688 228.261 271.128C227.717 270.568 226.957 270.288 225.981 270.288C225.005 270.288 224.237 270.568 223.677 271.128C223.133 271.688 222.861 272.504 222.861 273.576V277.224C222.861 278.296 223.133 279.112 223.677 279.672C224.237 280.232 225.005 280.512 225.981 280.512ZM238.572 282V271.848H234.684V270.12H238.572V267.744C238.572 266.736 238.884 265.944 239.508 265.368C240.148 264.776 241.02 264.48 242.124 264.48H245.94V266.208H242.124C241.596 266.208 241.188 266.344 240.9 266.616C240.628 266.872 240.492 267.248 240.492 267.744V270.12H245.94V271.848H240.492V282H238.572ZM269.273 282.24C268.233 282.24 267.329 282.04 266.561 281.64C265.809 281.24 265.225 280.664 264.809 279.912C264.393 279.16 264.185 278.28 264.185 277.272V269.208C264.185 268.184 264.393 267.304 264.809 266.568C265.225 265.816 265.809 265.24 266.561 264.84C267.329 264.44 268.233 264.24 269.273 264.24C270.297 264.24 271.185 264.448 271.937 264.864C272.705 265.264 273.297 265.84 273.713 266.592C274.129 267.344 274.337 268.24 274.337 269.28H272.441C272.441 268.224 272.161 267.408 271.601 266.832C271.041 266.24 270.265 265.944 269.273 265.944C268.281 265.944 267.497 266.232 266.921 266.808C266.361 267.368 266.081 268.168 266.081 269.208V277.272C266.081 278.296 266.361 279.096 266.921 279.672C267.497 280.248 268.281 280.536 269.273 280.536C270.265 280.536 271.041 280.248 271.601 279.672C272.161 279.08 272.441 278.256 272.441 277.2H274.337C274.337 278.224 274.129 279.12 273.713 279.888C273.297 280.64 272.705 281.224 271.937 281.64C271.185 282.04 270.297 282.24 269.273 282.24ZM283.544 282.216C282.52 282.216 281.632 282.016 280.88 281.616C280.128 281.216 279.544 280.64 279.128 279.888C278.712 279.136 278.504 278.248 278.504 277.224V273.576C278.504 272.536 278.712 271.648 279.128 270.912C279.544 270.16 280.128 269.584 280.88 269.184C281.632 268.784 282.52 268.584 283.544 268.584C284.568 268.584 285.456 268.784 286.208 269.184C286.96 269.584 287.544 270.16 287.96 270.912C288.376 271.648 288.584 272.528 288.584 273.552V277.224C288.584 278.248 288.376 279.136 287.96 279.888C287.544 280.64 286.96 281.216 286.208 281.616C285.456 282.016 284.568 282.216 283.544 282.216ZM283.544 280.512C284.536 280.512 285.304 280.232 285.848 279.672C286.392 279.112 286.664 278.296 286.664 277.224V273.576C286.664 272.504 286.384 271.688 285.824 271.128C285.28 270.568 284.52 270.288 283.544 270.288C282.568 270.288 281.8 270.568 281.24 271.128C280.696 271.688 280.424 272.504 280.424 273.576V277.224C280.424 278.296 280.696 279.112 281.24 279.672C281.8 280.232 282.568 280.512 283.544 280.512ZM297.286 282.24C295.974 282.24 294.91 281.8 294.094 280.92C293.294 280.04 292.894 278.856 292.894 277.368V273.456C292.894 271.952 293.294 270.76 294.094 269.88C294.894 269 295.958 268.56 297.286 268.56C298.39 268.56 299.278 268.864 299.95 269.472C300.638 270.08 300.982 270.896 300.982 271.92L300.478 271.128H300.934L300.91 268.248V264.48H302.806V282H300.91V279.672H300.406L300.982 278.88C300.982 279.92 300.638 280.744 299.95 281.352C299.278 281.944 298.39 282.24 297.286 282.24ZM297.886 280.584C298.83 280.584 299.566 280.296 300.094 279.72C300.638 279.128 300.91 278.312 300.91 277.272V273.528C300.91 272.488 300.638 271.68 300.094 271.104C299.566 270.512 298.83 270.216 297.886 270.216C296.926 270.216 296.174 270.504 295.63 271.08C295.086 271.656 294.814 272.472 294.814 273.528V277.272C294.814 278.328 295.086 279.144 295.63 279.72C296.174 280.296 296.926 280.584 297.886 280.584ZM312.325 282.24C311.301 282.24 310.413 282.04 309.661 281.64C308.909 281.224 308.325 280.64 307.909 279.888C307.493 279.136 307.285 278.264 307.285 277.272V273.528C307.285 272.52 307.493 271.648 307.909 270.912C308.325 270.16 308.909 269.584 309.661 269.184C310.413 268.768 311.301 268.56 312.325 268.56C313.349 268.56 314.237 268.768 314.989 269.184C315.741 269.584 316.325 270.16 316.741 270.912C317.157 271.648 317.365 272.52 317.365 273.528V275.856H309.157V277.272C309.157 278.344 309.429 279.176 309.973 279.768C310.533 280.344 311.317 280.632 312.325 280.632C313.173 280.632 313.861 280.464 314.389 280.128C314.933 279.792 315.277 279.304 315.421 278.664H317.317C317.141 279.768 316.605 280.64 315.709 281.28C314.813 281.92 313.685 282.24 312.325 282.24ZM315.493 274.584V273.528C315.493 272.456 315.221 271.632 314.677 271.056C314.133 270.464 313.349 270.168 312.325 270.168C311.317 270.168 310.533 270.464 309.973 271.056C309.429 271.632 309.157 272.456 309.157 273.528V274.368H315.685L315.493 274.584Z" fill="black"/>
</svg>
